<svg width="128" height="130" viewBox="0 0 128 130" fill="none" xmlns="http://www.w3.org/2000/svg">
<path fill-rule="evenodd" clip-rule="evenodd" d="M119.073 50.11H111.135V24C111.135 10.7452 100.39 0 87.135 0H39.8764C26.6216 0 15.8764 10.7452 15.8764 24V50.11H7.93822C5.83287 50.11 3.81376 50.9464 2.32505 52.4351C0.836346 53.9238 0 55.9429 0 58.0482V65.9864C0 68.0918 0.836346 70.1109 2.32505 71.5996C3.81376 73.0883 5.83287 73.9247 7.93822 73.9247V113.616C7.93822 117.826 9.61091 121.865 12.5883 124.842C15.5657 127.819 19.604 129.492 23.8147 129.492H103.197C107.408 129.492 111.446 127.819 114.423 124.842C117.401 121.865 119.073 117.826 119.073 113.616V73.9247C121.179 73.9247 123.198 73.0883 124.686 71.5996C126.175 70.1109 127.011 68.0918 127.011 65.9864V58.0482C127.011 55.9429 126.175 53.9238 124.686 52.4351C123.198 50.9464 121.179 50.11 119.073 50.11ZM95.2588 50.11H90.6075C88.5029 50.1103 86.4845 50.9464 84.9961 52.4344L81.7067 55.7238C80.2184 57.2118 78.2 58.0479 76.0954 58.0482H50.9164C48.8118 58.0479 46.7934 57.2118 45.3051 55.7238L42.0157 52.4344C40.5273 50.9464 38.5089 50.1103 36.4043 50.11H31.753V38.7601C31.753 25.5053 42.4982 14.7601 55.753 14.7601H71.2588C84.5136 14.7601 95.2588 25.5053 95.2588 38.7601V50.11ZM92.2821 111.631C92.2821 112.158 92.0731 112.662 91.7009 113.035C91.3287 113.407 90.8239 113.616 90.2976 113.616H38.6992C38.1728 113.616 37.668 113.407 37.2959 113.035C36.9237 112.662 36.7146 112.158 36.7146 111.631V107.662C36.7146 107.136 36.9237 106.631 37.2959 106.259C37.668 105.887 38.1728 105.678 38.6992 105.678H90.2976C90.8239 105.678 91.3287 105.887 91.7009 106.259C92.0731 106.631 92.2821 107.136 92.2821 107.662V111.631ZM22.8225 81.8629H26.7916C27.318 81.8629 27.8228 81.6538 28.1949 81.2816C28.5671 80.9094 28.7762 80.4046 28.7762 79.8783V75.9092C28.7762 75.3829 28.5671 74.8781 28.1949 74.5059C27.8228 74.1337 27.318 73.9246 26.7916 73.9246H22.8225C22.2962 73.9246 21.7914 74.1337 21.4192 74.5059C21.0471 74.8781 20.838 75.3829 20.838 75.9092V79.8783C20.838 80.4046 21.0471 80.9094 21.4192 81.2816C21.7914 81.6538 22.2962 81.8629 22.8225 81.8629ZM42.6681 81.8629H38.699C38.1726 81.8629 37.6678 81.6538 37.2957 81.2816C36.9235 80.9094 36.7144 80.4046 36.7144 79.8783V75.9092C36.7144 75.3829 36.9235 74.8781 37.2957 74.5059C37.6678 74.1337 38.1726 73.9246 38.699 73.9246H42.6681C43.1944 73.9246 43.6992 74.1337 44.0714 74.5059C44.4435 74.8781 44.6526 75.3829 44.6526 75.9092V79.8783C44.6526 80.4046 44.4435 80.9094 44.0714 81.2816C43.6992 81.6538 43.1944 81.8629 42.6681 81.8629ZM58.5445 81.8629H54.5754C54.0491 81.8629 53.5443 81.6538 53.1721 81.2816C52.7999 80.9094 52.5908 80.4046 52.5908 79.8783V75.9092C52.5908 75.3829 52.7999 74.8781 53.1721 74.5059C53.5443 74.1337 54.0491 73.9246 54.5754 73.9246H58.5445C59.0708 73.9246 59.5756 74.1337 59.9478 74.5059C60.32 74.8781 60.5291 75.3829 60.5291 75.9092V79.8783C60.5291 80.4046 60.32 80.9094 59.9478 81.2816C59.5756 81.6538 59.0708 81.8629 58.5445 81.8629ZM74.4209 81.8629H70.4518C69.9255 81.8629 69.4207 81.6538 69.0485 81.2816C68.6764 80.9094 68.4673 80.4046 68.4673 79.8783V75.9092C68.4673 75.3829 68.6764 74.8781 69.0485 74.5059C69.4207 74.1337 69.9255 73.9246 70.4518 73.9246H74.4209C74.9473 73.9246 75.4521 74.1337 75.8242 74.5059C76.1964 74.8781 76.4055 75.3829 76.4055 75.9092V79.8783C76.4055 80.4046 76.1964 80.9094 75.8242 81.2816C75.4521 81.6538 74.9473 81.8629 74.4209 81.8629ZM92.2819 79.8783V75.9092C92.2819 75.3829 92.0729 74.8781 91.7007 74.5059C91.3285 74.1337 90.8237 73.9246 90.2974 73.9246H86.3283C85.8019 73.9246 85.2971 74.1337 84.925 74.5059C84.5528 74.8781 84.3437 75.3829 84.3437 75.9092V79.8783C84.3437 80.4046 84.5528 80.9094 84.925 81.2816C85.2971 81.6538 85.8019 81.8629 86.3283 81.8629H90.2974C90.8237 81.8629 91.3285 81.6538 91.7007 81.2816C92.0729 80.9094 92.2819 80.4046 92.2819 79.8783ZM76.9868 90.3823C76.6146 90.7545 76.4055 91.2593 76.4055 91.7856V95.7547C76.4055 96.2811 76.6146 96.7859 76.9868 97.158C77.3589 97.5302 77.8637 97.7393 78.3901 97.7393H82.3592C82.8855 97.7393 83.3903 97.5302 83.7625 97.158C84.1346 96.7859 84.3437 96.2811 84.3437 95.7547V91.7856C84.3437 91.2593 84.1346 90.7545 83.7625 90.3823C83.3903 90.0102 82.8855 89.8011 82.3592 89.8011H78.3901C77.8637 89.8011 77.3589 90.0102 76.9868 90.3823ZM61.1103 90.3823C60.7381 90.7545 60.5291 91.2593 60.5291 91.7856V95.7547C60.5291 96.2811 60.7381 96.7859 61.1103 97.158C61.4825 97.5302 61.9873 97.7393 62.5136 97.7393H66.4827C67.0091 97.7393 67.5138 97.5302 67.886 97.158C68.2582 96.7859 68.4673 96.2811 68.4673 95.7547V91.7856C68.4673 91.2593 68.2582 90.7545 67.886 90.3823C67.5138 90.0102 67.0091 89.8011 66.4827 89.8011H62.5136C61.9873 89.8011 61.4825 90.0102 61.1103 90.3823ZM45.2339 90.3823C44.8617 90.7545 44.6526 91.2593 44.6526 91.7856V95.7547C44.6526 96.2811 44.8617 96.7859 45.2339 97.158C45.6061 97.5302 46.1108 97.7393 46.6372 97.7393H50.6063C51.1326 97.7393 51.6374 97.5302 52.0096 97.158C52.3818 96.7859 52.5908 96.2811 52.5908 95.7547V91.7856C52.5908 91.2593 52.3818 90.7545 52.0096 90.3823C51.6374 90.0102 51.1326 89.8011 50.6063 89.8011H46.6372C46.1108 89.8011 45.6061 90.0102 45.2339 90.3823ZM34.7299 97.7393H30.7607C30.2344 97.7393 29.7296 97.5302 29.3575 97.158C28.9853 96.7859 28.7762 96.2811 28.7762 95.7547V91.7856C28.7762 91.2593 28.9853 90.7545 29.3575 90.3823C29.7296 90.0102 30.2344 89.8011 30.7607 89.8011H34.7299C35.2562 89.8011 35.761 90.0102 36.1331 90.3823C36.5053 90.7545 36.7144 91.2593 36.7144 91.7856V95.7547C36.7144 96.2811 36.5053 96.7859 36.1331 97.158C35.761 97.5302 35.2562 97.7393 34.7299 97.7393ZM99.6389 97.158C100.011 96.7859 100.22 96.2811 100.22 95.7547V91.7856C100.22 91.2593 100.011 90.7545 99.6389 90.3823C99.2667 90.0102 98.7619 89.8011 98.2356 89.8011H94.2665C93.7402 89.8011 93.2354 90.0102 92.8632 90.3823C92.491 90.7545 92.2819 91.2593 92.2819 91.7856V95.7547C92.2819 96.2811 92.491 96.7859 92.8632 97.158C93.2354 97.5302 93.7402 97.7393 94.2665 97.7393H98.2356C98.7619 97.7393 99.2667 97.5302 99.6389 97.158ZM108.158 79.8783C108.158 80.4046 107.949 80.9094 107.577 81.2816C107.205 81.6538 106.7 81.8629 106.174 81.8629H102.205C101.678 81.8629 101.174 81.6538 100.801 81.2816C100.429 80.9094 100.22 80.4046 100.22 79.8783V75.9092C100.22 75.3829 100.429 74.8781 100.801 74.5059C101.174 74.1337 101.678 73.9246 102.205 73.9246H106.174C106.7 73.9246 107.205 74.1337 107.577 74.5059C107.949 74.8781 108.158 75.3829 108.158 75.9092V79.8783ZM43.3341 33.5494L53.7808 23.1152C54.5028 22.394 55.6704 22.394 56.3847 23.1152L58.1207 24.8491C58.8428 25.5703 58.8428 26.7365 58.1207 27.45L50.7236 34.8537L58.1284 42.2498C58.8505 42.9709 58.8505 44.1371 58.1284 44.8506L56.3924 46.5922C55.6704 47.3134 54.5028 47.3134 53.7884 46.5922L43.3418 36.158C42.612 35.4368 42.612 34.2706 43.3341 33.5494ZM73.5633 23.1152L84.0099 33.5494C84.732 34.2706 84.732 35.4368 84.0023 36.158L73.5556 46.5922C72.8412 47.3134 71.6737 47.3134 70.9516 46.5922L69.2156 44.8506C68.4936 44.1371 68.4936 42.9709 69.2156 42.2498L76.6205 34.8537L69.2233 27.45C68.5012 26.7365 68.5012 25.5703 69.2233 24.8491L70.9593 23.1152C71.6737 22.394 72.8412 22.394 73.5633 23.1152Z" fill="currentColor"></path>

</svg>